<svg width="154" height="49" viewBox="0 0 154 49" fill="none" xmlns="http://www.w3.org/2000/svg">
<path d="M51.872 37V20.08H63.032V22.504H54.968V27.304H62.48V29.728H54.968V37H51.872ZM69.4297 37.24C67.9417 37.24 66.8297 36.832 66.0937 36.016C65.3577 35.2 64.9897 33.952 64.9897 32.272V24.88H67.9897V32.248C67.9897 33.144 68.1737 33.808 68.5417 34.24C68.9097 34.656 69.4697 34.864 70.2217 34.864C71.0697 34.864 71.7577 34.576 72.2857 34C72.8297 33.424 73.1017 32.664 73.1017 31.72V24.88H76.1017V37H73.1737V34.528H73.5097C73.1577 35.392 72.6217 36.064 71.9017 36.544C71.1977 37.008 70.3737 37.24 69.4297 37.24ZM79.3346 37V27.976C79.3346 27.464 79.3186 26.944 79.2866 26.416C79.2706 25.888 79.2306 25.376 79.1666 24.88H82.0706L82.4066 28.192H81.9266C82.0866 27.392 82.3506 26.728 82.7186 26.2C83.1026 25.672 83.5666 25.28 84.1106 25.024C84.6546 24.768 85.2466 24.64 85.8866 24.64C86.1746 24.64 86.4066 24.656 86.5826 24.688C86.7586 24.704 86.9346 24.744 87.1106 24.808L87.0866 27.448C86.7826 27.32 86.5186 27.24 86.2946 27.208C86.0866 27.176 85.8226 27.16 85.5026 27.16C84.8146 27.16 84.2306 27.304 83.7506 27.592C83.2866 27.88 82.9346 28.28 82.6946 28.792C82.4706 29.304 82.3586 29.888 82.3586 30.544V37H79.3346ZM88.7804 37V27.904C88.7804 27.408 88.7644 26.904 88.7324 26.392C88.7004 25.88 88.6524 25.376 88.5884 24.88H91.4924L91.7324 27.28H91.4444C91.8284 26.432 92.3964 25.784 93.1484 25.336C93.9004 24.872 94.7724 24.64 95.7644 24.64C97.1884 24.64 98.2604 25.04 98.9804 25.84C99.7004 26.64 100.06 27.888 100.06 29.584V37H97.0604V29.728C97.0604 28.752 96.8684 28.056 96.4844 27.64C96.1164 27.208 95.5564 26.992 94.8044 26.992C93.8764 26.992 93.1404 27.28 92.5964 27.856C92.0524 28.432 91.7804 29.2 91.7804 30.16V37H88.7804ZM103.241 37V24.88H106.241V37H103.241ZM103.073 22.6V19.672H106.409V22.6H103.073ZM114.683 37.24C113.243 37.24 112.155 36.864 111.419 36.112C110.683 35.36 110.315 34.232 110.315 32.728V27.136H107.987V24.88H110.315V21.784L113.315 21.016V24.88H116.555V27.136H113.315V32.536C113.315 33.368 113.475 33.952 113.795 34.288C114.115 34.624 114.555 34.792 115.115 34.792C115.419 34.792 115.675 34.768 115.883 34.72C116.107 34.672 116.323 34.608 116.531 34.528V36.904C116.259 37.016 115.955 37.096 115.619 37.144C115.299 37.208 114.987 37.24 114.683 37.24ZM122.961 37.24C121.473 37.24 120.361 36.832 119.625 36.016C118.889 35.2 118.521 33.952 118.521 32.272V24.88H121.521V32.248C121.521 33.144 121.705 33.808 122.073 34.24C122.441 34.656 123.001 34.864 123.753 34.864C124.601 34.864 125.289 34.576 125.817 34C126.361 33.424 126.633 32.664 126.633 31.72V24.88H129.633V37H126.705V34.528H127.041C126.689 35.392 126.153 36.064 125.433 36.544C124.729 37.008 123.905 37.24 122.961 37.24ZM132.866 37V27.976C132.866 27.464 132.85 26.944 132.818 26.416C132.802 25.888 132.762 25.376 132.698 24.88H135.602L135.938 28.192H135.458C135.618 27.392 135.882 26.728 136.25 26.2C136.634 25.672 137.098 25.28 137.642 25.024C138.186 24.768 138.778 24.64 139.418 24.64C139.706 24.64 139.938 24.656 140.114 24.688C140.29 24.704 140.466 24.744 140.642 24.808L140.618 27.448C140.314 27.32 140.05 27.24 139.826 27.208C139.618 27.176 139.354 27.16 139.034 27.16C138.346 27.16 137.762 27.304 137.282 27.592C136.818 27.88 136.466 28.28 136.226 28.792C136.002 29.304 135.89 29.888 135.89 30.544V37H132.866ZM147.98 37.24C145.948 37.24 144.356 36.68 143.204 35.56C142.052 34.44 141.476 32.904 141.476 30.952C141.476 29.688 141.724 28.584 142.22 27.64C142.716 26.696 143.404 25.96 144.284 25.432C145.18 24.904 146.22 24.64 147.404 24.64C148.572 24.64 149.548 24.888 150.332 25.384C151.116 25.88 151.708 26.576 152.108 27.472C152.524 28.368 152.732 29.416 152.732 30.616V31.408H143.9V29.824H150.596L150.188 30.16C150.188 29.04 149.948 28.184 149.468 27.592C149.004 27 148.324 26.704 147.428 26.704C146.436 26.704 145.668 27.056 145.124 27.76C144.596 28.464 144.332 29.448 144.332 30.712V31.024C144.332 32.336 144.652 33.32 145.292 33.976C145.948 34.616 146.868 34.936 148.052 34.936C148.74 34.936 149.38 34.848 149.972 34.672C150.58 34.48 151.156 34.176 151.7 33.76L152.588 35.776C152.012 36.24 151.324 36.6 150.524 36.856C149.724 37.112 148.876 37.24 147.98 37.24Z" fill="#FF8947"/>
<rect width="43" height="49" rx="5" fill="#FF8947"/>
<path d="M11.872 34V17.08H14.968V34H11.872ZM18.4523 34V24.904C18.4523 24.408 18.4363 23.904 18.4043 23.392C18.3723 22.88 18.3243 22.376 18.2603 21.88H21.1643L21.4043 24.28H21.1163C21.5003 23.432 22.0683 22.784 22.8203 22.336C23.5723 21.872 24.4443 21.64 25.4363 21.64C26.8603 21.64 27.9323 22.04 28.6523 22.84C29.3723 23.64 29.7323 24.888 29.7323 26.584V34H26.7323V26.728C26.7323 25.752 26.5403 25.056 26.1563 24.64C25.7883 24.208 25.2283 23.992 24.4763 23.992C23.5483 23.992 22.8123 24.28 22.2683 24.856C21.7243 25.432 21.4523 26.2 21.4523 27.16V34H18.4523Z" fill="#F5F5F5"/>
</svg>
